<svg width="214" height="46" viewBox="0 0 214 46" fill="none" xmlns="http://www.w3.org/2000/svg">
<path d="M79.5127 12C79.6107 12.5862 79.6596 13.1236 79.6596 13.6121C79.6596 14.4425 79.525 15.0532 79.2556 15.444C78.9862 15.8348 78.5577 16.0302 77.97 16.0302H73.048V37.6466H67.4648V16.0302H61V12H79.5127Z" fill="black"/>
<path d="M90.5021 38.0129C87.5391 38.0129 85.2372 37.097 83.5965 35.2651C81.9803 33.4332 81.1722 30.8563 81.1722 27.5345C81.1722 24.2126 81.9803 21.648 83.5965 19.8405C85.2372 18.033 87.5391 17.1293 90.5021 17.1293C93.4651 17.1293 95.7547 18.033 97.3709 19.8405C99.0116 21.648 99.8319 24.2126 99.8319 27.5345C99.8319 30.8563 99.0116 33.4332 97.3709 35.2651C95.7547 37.097 93.4651 38.0129 90.5021 38.0129ZM90.5021 34.4957C91.8489 34.4957 92.8162 33.9461 93.4039 32.847C94.0161 31.7478 94.3222 29.977 94.3222 27.5345C94.3222 25.1164 94.0161 23.37 93.4039 22.2953C92.8162 21.1961 91.8489 20.6466 90.5021 20.6466C89.1552 20.6466 88.1757 21.1839 87.5635 22.2586C86.9758 23.3333 86.682 25.092 86.682 27.5345C86.682 29.977 86.9758 31.7478 87.5635 32.847C88.1757 33.9461 89.1552 34.4957 90.5021 34.4957Z" fill="black"/>
<path d="M112.077 12C114.672 12 116.913 12.5129 118.799 13.5388C120.684 14.5647 122.129 16.0424 123.133 17.972C124.137 19.8772 124.639 22.1609 124.639 24.8233C124.639 27.3879 124.112 29.6473 123.059 31.6013C122.031 33.5309 120.574 35.0208 118.688 36.0711C116.803 37.1214 114.599 37.6466 112.077 37.6466H103.371V12H112.077ZM111.342 33.7629C113.791 33.7629 115.676 32.9935 116.999 31.4547C118.321 29.8915 118.982 27.6932 118.982 24.8599C118.982 18.8757 116.436 15.8836 111.342 15.8836H109.028V33.7629H111.342Z" fill="black"/>
<path d="M136.417 38.0129C133.454 38.0129 131.152 37.097 129.511 35.2651C127.895 33.4332 127.087 30.8563 127.087 27.5345C127.087 24.2126 127.895 21.648 129.511 19.8405C131.152 18.033 133.454 17.1293 136.417 17.1293C139.38 17.1293 141.669 18.033 143.285 19.8405C144.926 21.648 145.746 24.2126 145.746 27.5345C145.746 30.8563 144.926 33.4332 143.285 35.2651C141.669 37.097 139.38 38.0129 136.417 38.0129ZM136.417 34.4957C137.763 34.4957 138.731 33.9461 139.318 32.847C139.931 31.7478 140.237 29.977 140.237 27.5345C140.237 25.1164 139.931 23.37 139.318 22.2953C138.731 21.1961 137.763 20.6466 136.417 20.6466C135.07 20.6466 134.09 21.1839 133.478 22.2586C132.89 23.3333 132.596 25.092 132.596 27.5345C132.596 29.977 132.89 31.7478 133.478 32.847C134.09 33.9461 135.07 34.4957 136.417 34.4957Z" fill="black"/>
<path d="M165.044 37.6466C164.676 35.033 164.321 32.9203 163.978 31.3082H153.987C153.645 32.9203 153.29 35.033 152.922 37.6466H147.413C148.343 28.7802 151.257 20.2313 156.155 12H161.848C166.721 20.1825 169.623 28.7313 170.553 37.6466H165.044ZM163.097 27.278C162.068 23.2478 160.697 19.5474 158.983 16.1767C157.269 19.5474 155.898 23.2478 154.869 27.278H163.097Z" fill="black"/>
<path d="M184.076 17.1293C186.697 17.1293 188.68 17.9842 190.027 19.694C191.374 21.3793 192.047 23.8707 192.047 27.1681C192.047 29.3175 191.655 31.2105 190.872 32.847C190.088 34.4835 188.986 35.7536 187.566 36.6573C186.146 37.5611 184.505 38.0129 182.644 38.0129C181.615 38.0129 180.354 37.8053 178.86 37.3901V46H173.424V25.1897C173.424 23.2112 173.339 21.7823 173.167 20.903C173.02 19.9993 172.702 19.2299 172.212 18.5948C172.898 18.204 173.62 17.8987 174.379 17.6789C175.163 17.4591 175.897 17.3491 176.583 17.3491C177.097 17.3491 177.514 17.5201 177.832 17.8621C178.15 18.204 178.395 18.7292 178.567 19.4375C180.036 17.8987 181.872 17.1293 184.076 17.1293ZM181.872 34.4957C183.391 34.4957 184.542 33.8728 185.325 32.6272C186.133 31.3815 186.537 29.5618 186.537 27.1681C186.537 24.8966 186.244 23.2356 185.656 22.1853C185.068 21.1106 184.138 20.5733 182.864 20.5733C182.081 20.5733 181.322 20.7565 180.587 21.1228C179.852 21.4892 179.277 21.9411 178.86 22.4784V33.8362C179.864 34.2759 180.868 34.4957 181.872 34.4957Z" fill="black"/>
<path d="M206.029 17.1293C208.649 17.1293 210.633 17.9842 211.98 19.694C213.327 21.3793 214 23.8707 214 27.1681C214 29.3175 213.608 31.2105 212.825 32.847C212.041 34.4835 210.939 35.7536 209.519 36.6573C208.098 37.5611 206.458 38.0129 204.597 38.0129C203.568 38.0129 202.307 37.8053 200.813 37.3901V46H195.377V25.1897C195.377 23.2112 195.291 21.7823 195.12 20.903C194.973 19.9993 194.655 19.2299 194.165 18.5948C194.851 18.204 195.573 17.8987 196.332 17.6789C197.116 17.4591 197.85 17.3491 198.536 17.3491C199.05 17.3491 199.467 17.5201 199.785 17.8621C200.103 18.204 200.348 18.7292 200.52 19.4375C201.989 17.8987 203.825 17.1293 206.029 17.1293ZM203.825 34.4957C205.344 34.4957 206.495 33.8728 207.278 32.6272C208.086 31.3815 208.49 29.5618 208.49 27.1681C208.49 24.8966 208.196 23.2356 207.609 22.1853C207.021 21.1106 206.09 20.5733 204.817 20.5733C204.033 20.5733 203.274 20.7565 202.54 21.1228C201.805 21.4892 201.23 21.9411 200.813 22.4784V33.8362C201.817 34.2759 202.821 34.4957 203.825 34.4957Z" fill="black"/>
<path fill-rule="evenodd" clip-rule="evenodd" d="M4.05021 0.298143C2.49751 0.773619 0.822036 2.49431 0.362128 4.08621C-0.0617697 5.55352 -0.138772 12.8233 0.266353 13.1444C0.398139 13.2487 0.893675 13.5495 1.36776 13.8126C2.55019 14.4689 3.2049 14.8469 5.90229 16.4311C7.41074 17.317 8.43974 17.8005 8.81671 17.8005C9.29941 17.8005 10.7222 17.1304 12.0945 16.2568C12.4264 16.0457 22.9856 9.98559 24.5162 9.12794C25.9569 8.32076 26.4064 8.30847 27.6281 9.04194C28.8904 9.79978 29.0887 10.4327 28.2424 11.0022C27.6714 11.3865 27.5745 11.4427 25.7902 12.4284C25.1581 12.7776 24.1868 13.3517 23.6317 13.7044C23.0764 14.0568 22.5793 14.3453 22.527 14.3453C22.4745 14.3453 21.8081 14.7202 21.0461 15.1784C20.2842 15.6366 19.5044 16.0677 19.3134 16.1368C19.1119 16.2096 19.0238 16.3559 19.1034 16.485C19.1856 16.6184 19.1577 16.6565 19.0337 16.5797C18.9198 16.5092 17.7643 17.0713 16.4662 17.8287C9.74552 21.7508 9.51873 21.8704 8.81747 21.8633C8.32481 21.8585 7.62106 21.5494 6.36852 20.7883C5.40158 20.2007 4.58405 19.7201 4.55149 19.7201C4.51893 19.7201 3.55218 19.159 2.40327 18.4733C1.25436 17.7877 0.249497 17.2262 0.170579 17.2256C0.0916609 17.225 0.0269174 18.0268 0.0269174 19.0073V20.79L1.31987 21.5508C2.03109 21.9692 2.69902 22.3455 2.80437 22.3869C2.90973 22.4284 4.14177 23.1528 5.54237 23.9967C8.82782 25.9765 8.95826 25.9792 11.9029 24.1293C12.6207 23.6784 16.5309 21.4477 16.6035 21.4477C16.6484 21.4477 17.2682 21.0891 17.9812 20.6507C18.6943 20.2123 19.6224 19.6631 20.0438 19.43C20.4652 19.1972 21.8824 18.3762 23.193 17.6059C25.6764 16.1464 26.5164 15.9203 27.2065 16.5248C27.3757 16.6732 27.7833 16.931 28.1124 17.0978C28.7257 17.4089 29.0119 17.9666 28.7642 18.3681C28.6876 18.4925 27.1489 19.4402 25.3451 20.4741C23.5412 21.508 22.1062 22.3946 22.156 22.4445C22.2058 22.4946 22.1355 22.5355 21.9997 22.5355C21.5317 22.5355 19.1783 23.974 19.3063 24.1817C19.3816 24.3036 19.3417 24.3301 19.2078 24.2472C19.0843 24.1708 18.7046 24.2785 18.3643 24.4865C18.0237 24.6946 17.4004 25.0547 16.979 25.2868C16.5576 25.5189 15.4594 26.1537 14.5385 26.6975C13.6177 27.2413 12.6264 27.8162 12.3356 27.9752C12.0451 28.1341 11.3409 28.5522 10.7711 28.904C9.22834 29.8567 8.75752 29.8728 7.19256 29.0257C6.46468 28.6318 5.46288 28.0542 4.96619 27.7423C4.46223 27.4258 3.96248 27.2377 3.8351 27.3164C3.69814 27.4012 3.65753 27.3759 3.73339 27.253C3.80675 27.134 3.31811 26.7489 2.5657 26.3328C1.8541 25.9393 1.14269 25.5127 0.984661 25.3851C0.826633 25.2576 0.546589 25.0996 0.362128 25.034C0.0581398 24.9261 0.0269174 25.0837 0.0269174 26.7249V28.5351L1.956 29.6463C3.01699 30.2575 4.80548 31.314 5.93064 31.9941C8.34186 33.4519 9.16456 33.5893 10.4663 32.7514C10.8877 32.4802 11.6204 32.0408 12.0945 31.7751C12.5686 31.5093 13.8184 30.7911 14.8719 30.179C22.1834 25.9312 25.769 23.9431 26.1183 23.9431C26.7395 23.9431 28.978 25.3229 28.8592 25.6329C28.8042 25.7765 28.7592 25.9684 28.7592 26.059C28.7592 26.2341 27.2332 27.1555 21.9592 30.1644C20.1683 31.1862 18.5736 32.0993 18.4156 32.1936C13.5198 35.1169 9.31799 37.38 8.78682 37.38C8.17272 37.38 7.627 37.0898 2.24486 33.8995C1.19958 33.2801 0.273058 32.7731 0.185712 32.7731C0.0983655 32.7731 0.0326642 34.6088 0.03956 36.8522C0.0499036 40.1803 0.113498 41.119 0.384923 41.9511C0.834679 43.3303 2.05274 44.7037 3.42423 45.3789L4.52831 45.9221L22.6073 45.9739C43.6585 46.0342 42.2226 46.1528 44.1777 44.1933C46.1166 42.2505 45.9986 43.6251 45.9986 22.9864C45.9986 2.89378 46.0649 3.84357 44.5388 2.09524C44.0249 1.50651 43.2593 0.911635 42.5942 0.584349L41.4972 0.0445693L23.3001 0.010209C6.7476 -0.0210798 5.00776 0.00502622 4.05021 0.298143Z" fill="#A4DBDB"/>
</svg>
